<svg xmlns="http://www.w3.org/2000/svg" width="22" height="16" fill="none"><path fill="#C635FF" fill-rule="evenodd" d="M10.75 14c-4.121 0-7.673-2.568-9.194-6.252C3.026 4.156 6.633 1.5 10.75 1.5c4.118 0 7.725 2.656 9.194 6.248C18.424 11.432 14.872 14 10.75 14Zm10.703-6.513a.748.748 0 0 1-.005.538C19.781 12.39 15.628 15.5 10.75 15.5c-4.88 0-9.036-3.113-10.7-7.483a.747.747 0 0 1 .001-.538C1.656 3.209 5.871 0 10.751 0c4.881 0 9.099 3.212 10.702 7.487ZM7.5 7.75a3.25 3.25 0 1 1 6.5 0 3.25 3.25 0 0 1-6.5 0ZM10.75 3a4.75 4.75 0 1 0 0 9.5 4.75 4.75 0 0 0 0-9.5Z" clip-rule="evenodd"/></svg>